<svg width="13" height="16" viewBox="0 0 13 16" fill="none" xmlns="http://www.w3.org/2000/svg">
<g id="Group 159">
<path id="Vector" d="M12.375 2.06923C12.375 2.9731 11.6521 3.70584 10.7603 3.70584C9.86845 3.70584 9.1455 2.9731 9.1455 2.06923C9.1455 1.16536 9.86845 0.432617 10.7603 0.432617C11.6521 0.432617 12.375 1.16536 12.375 2.06923Z" fill="white"/>
<path id="Vector_2" d="M6.10129 3.99458C5.55608 3.90748 5.29277 4.63824 5.76824 4.9189L7.95989 6.2126L2.87996 12.9598C2.65789 13.2547 3.06125 13.6124 3.32748 13.3566L10.629 6.34102C11.2243 5.76899 10.9092 4.76271 10.0939 4.63246L6.10129 3.99458Z" fill="white"/>
<path id="Vector_3" d="M10.2835 7.80396L8.57714 9.44552L9.72904 10.9868L7.83715 12.0904C7.53105 12.269 7.73314 12.7374 8.07307 12.6373L11.3695 11.6665C12.0243 11.4736 12.2977 10.6958 11.9076 10.1357L10.2835 7.80396Z" fill="white"/>
</g>
</svg>
